<svg width="77" height="54" viewBox="0 0 77 54" fill="none" xmlns="http://www.w3.org/2000/svg">
<path d="M12.4583 0C9.15418 0 5.98535 1.31257 3.64896 3.64896C1.31257 5.98535 0 9.15418 0 12.4583V17.25H76.6667V12.4583C76.6667 10.8223 76.3444 9.20225 75.7183 7.69074C75.0922 6.17922 74.1746 4.80582 73.0177 3.64896C71.8608 2.4921 70.4874 1.57442 68.9759 0.948335C67.4644 0.322245 65.8444 0 64.2083 0H12.4583ZM76.6667 23H0V41.2083C0 44.5125 1.31257 47.6813 3.64896 50.0177C5.98535 52.3541 9.15418 53.6667 12.4583 53.6667H64.2083C65.8444 53.6667 67.4644 53.3444 68.9759 52.7183C70.4874 52.0922 71.8608 51.1746 73.0177 50.0177C74.1746 48.8608 75.0922 47.4874 75.7183 45.9759C76.3444 44.4644 76.6667 42.8444 76.6667 41.2083V23ZM52.7083 36.4167H62.2917C63.0542 36.4167 63.7854 36.7196 64.3246 37.2587C64.8638 37.7979 65.1667 38.5292 65.1667 39.2917C65.1667 40.0542 64.8638 40.7854 64.3246 41.3246C63.7854 41.8638 63.0542 42.1667 62.2917 42.1667H52.7083C51.9458 42.1667 51.2146 41.8638 50.6754 41.3246C50.1362 40.7854 49.8333 40.0542 49.8333 39.2917C49.8333 38.5292 50.1362 37.7979 50.6754 37.2587C51.2146 36.7196 51.9458 36.4167 52.7083 36.4167Z" fill="black"/>
</svg>
