<svg width="56" height="54" viewBox="0 0 56 54" fill="none" xmlns="http://www.w3.org/2000/svg">
<path d="M22.5515 17.4629L24.0737 23.1401C25.5072 28.4883 26.2225 31.1639 28.3299 32.3798C30.4374 33.5987 33.1123 32.8795 38.4622 31.4473L44.1372 29.9236C49.487 28.4913 52.1619 27.7752 53.3797 25.6695C54.5975 23.5607 53.8822 20.8851 52.4457 15.537L50.9265 9.86276C49.4929 4.51159 48.7747 1.836 46.6702 0.620097C44.5598 -0.59885 41.8849 0.120329 36.535 1.55564L30.86 3.07323C25.5102 4.50549 22.8352 5.22467 21.6204 7.33345C20.4027 9.43918 21.118 12.1148 22.5515 17.4629Z" fill="black"/>
<path d="M0.0822968 6.65172C0.162047 6.36625 0.297681 6.09918 0.481443 5.86579C0.665205 5.63241 0.893492 5.43727 1.15325 5.29156C1.41301 5.14584 1.69914 5.05239 1.9953 5.01655C2.29145 4.98072 2.59181 5.0032 2.87921 5.08271L8.03413 6.50143C9.39992 6.87068 10.6462 7.58458 11.6519 8.57374C12.6576 9.56289 13.3884 10.7936 13.7733 12.1463L20.2843 35.5492L20.7625 37.1933C22.693 37.8998 24.3197 39.2446 25.3696 41.0016L26.3079 40.7131L53.1571 33.7848C53.4457 33.7102 53.7462 33.6927 54.0416 33.7335C54.337 33.7742 54.6214 33.8723 54.8786 34.0222C55.1358 34.1721 55.3607 34.3708 55.5405 34.607C55.7204 34.8432 55.8516 35.1123 55.9268 35.3989C56.0019 35.6854 56.0194 35.9839 55.9784 36.2772C55.9374 36.5705 55.8386 36.8529 55.6876 37.1083C55.5367 37.3637 55.3366 37.587 55.0987 37.7656C54.8608 37.9442 54.5899 38.0745 54.3013 38.1491L27.552 45.0504L26.5531 45.357C26.5349 49.1743 23.8803 52.667 19.8635 53.701C15.0506 54.9454 10.1015 52.1921 8.81206 47.5572C7.52257 42.9223 10.38 38.1521 15.1929 36.9108C15.433 36.8506 15.6722 36.7985 15.9103 36.7545L9.39627 13.3456C9.22011 12.7446 8.89073 12.1989 8.43999 11.7613C7.98925 11.3237 7.43242 11.0091 6.82335 10.8478L1.6654 9.42604C1.37797 9.34715 1.10901 9.2128 0.873879 9.03067C0.638751 8.84853 0.442062 8.62218 0.295049 8.36455C0.148036 8.10691 0.0535784 7.82304 0.0170739 7.52915C-0.0194306 7.23526 0.00273244 6.93711 0.0822968 6.65172Z" fill="black"/>
</svg>
