<svg width="35" height="35" viewBox="0 0 35 35" fill="none" xmlns="http://www.w3.org/2000/svg">
<path d="M5.63499 23.9969C4.38374 18.9919 3.75811 16.4908 5.07207 14.8079C6.38603 13.125 8.96582 13.125 14.1239 13.125H20.876C26.0356 13.125 28.6139 13.125 29.9279 14.8079C31.2419 16.4908 30.6162 18.9933 29.365 23.9969C28.5687 27.1804 28.1721 28.7715 26.985 29.699C25.7979 30.625 24.1573 30.625 20.876 30.625H14.1239C10.8427 30.625 9.20207 30.625 8.01499 29.699C6.8279 28.7715 6.42978 27.1804 5.63499 23.9969Z" stroke="black" stroke-width="1.5"/>
<path d="M28.4375 13.8542L27.4021 10.0552C27.0025 8.58962 26.8027 7.85754 26.3929 7.30483C25.9843 6.75572 25.4294 6.33271 24.7917 6.08421C24.15 5.83337 23.3917 5.83337 21.875 5.83337M6.5625 13.8542L7.59792 10.0552C7.9975 8.58962 8.19729 7.85754 8.60708 7.30483C9.01567 6.75572 9.57059 6.33271 10.2083 6.08421C10.85 5.83337 11.6083 5.83337 13.125 5.83337" stroke="black" stroke-width="1.5"/>
<path d="M13.125 5.83333C13.125 5.44656 13.2786 5.07563 13.5521 4.80214C13.8256 4.52865 14.1966 4.375 14.5833 4.375H20.4167C20.8034 4.375 21.1744 4.52865 21.4479 4.80214C21.7214 5.07563 21.875 5.44656 21.875 5.83333C21.875 6.22011 21.7214 6.59104 21.4479 6.86453C21.1744 7.13802 20.8034 7.29167 20.4167 7.29167H14.5833C14.1966 7.29167 13.8256 7.13802 13.5521 6.86453C13.2786 6.59104 13.125 6.22011 13.125 5.83333Z" stroke="black" stroke-width="1.5"/>
</svg>
