<svg width="34" height="34" viewBox="0 0 34 34" fill="none" xmlns="http://www.w3.org/2000/svg">
<path fill-rule="evenodd" clip-rule="evenodd" d="M10.2511 1.81333C10.7786 0.743467 11.9166 0 13.2317 0H20.7683C22.0834 0 23.2195 0.743467 23.7489 1.81333C25.0358 1.82421 26.04 1.88043 26.9369 2.21771C28.0075 2.62076 28.9386 3.30573 29.6237 4.19424C30.3151 5.09003 30.6411 6.23787 31.0857 7.81728L32.4838 12.7532L33.0113 14.2782L33.0565 14.3326C34.7541 16.4252 33.9459 19.5369 32.3293 25.7584C31.3005 29.7169 30.7881 31.6953 29.2544 32.8485C27.7207 34 25.601 34 21.3618 34H12.6382C8.39895 34 6.27931 34 4.74563 32.8485C3.21195 31.6953 2.69758 29.7169 1.67073 25.7584C0.0541458 19.5369 -0.754146 16.4252 0.943454 14.3326L0.988674 14.2782L1.51623 12.7532L2.91425 7.81728C3.36079 6.23787 3.68675 5.08821 4.37634 4.19243C5.06165 3.30458 5.99272 2.62026 7.0631 2.21771C7.95995 1.88043 8.96231 1.8224 10.2511 1.81333ZM10.2548 4.53877C9.00753 4.55147 8.50635 4.5968 8.09184 4.75275C7.51523 4.96977 7.01376 5.33865 6.64483 5.81717C6.31322 6.24693 6.11727 6.84715 5.57087 8.78197L4.49692 12.57C6.41873 12.24 9.04521 12.24 12.6364 12.24H21.3618C24.9548 12.24 27.5794 12.24 29.5012 12.5664L28.4291 8.77835C27.8827 6.84352 27.6868 6.24331 27.3552 5.81355C26.9862 5.33502 26.4848 4.96614 25.9082 4.74912C25.4937 4.59317 24.9925 4.54784 23.7452 4.53515C23.4777 5.07706 23.056 5.53487 22.5291 5.8555C22.0022 6.17613 21.3916 6.34644 20.7683 6.34667H13.2317C12.6086 6.3466 11.9981 6.17657 11.4713 5.85627C10.9444 5.53597 10.5226 5.08034 10.2548 4.53877Z" fill="black"/>
</svg>
