<svg width="35" height="35" viewBox="0 0 35 35" fill="none" xmlns="http://www.w3.org/2000/svg">
<g clip-path="url(#clip0_67_393)">
<path d="M29.3432 26.8756C29.3432 27.289 29.0643 27.5865 28.6629 27.5865C28.2495 27.5865 27.9826 27.2704 27.9826 26.8756C27.9826 26.4807 28.2495 26.1646 28.6629 26.1646C29.0643 26.1646 29.3432 26.4807 29.3432 26.8756ZM10.4575 26.1646C10.0254 26.1646 9.77715 26.4807 9.77715 26.8756C9.77715 27.2704 10.0265 27.5865 10.4575 27.5865C10.8523 27.5865 11.1192 27.289 11.1192 26.8756C11.1126 26.4807 10.8523 26.1646 10.4575 26.1646ZM17.5975 26.1471C17.2693 26.1471 17.0681 26.3593 17.02 26.6754H18.1804C18.1257 26.3287 17.9136 26.1471 17.5975 26.1471ZM24.1479 26.1646C23.7345 26.1646 23.4862 26.4807 23.4862 26.8756C23.4862 27.2704 23.7356 27.5865 24.1479 27.5865C24.5614 27.5865 24.8282 27.289 24.8282 26.8756C24.8282 26.4807 24.5603 26.1646 24.1479 26.1646ZM30.5825 27.7506C30.5825 27.7691 30.6011 27.7812 30.6011 27.8173C30.6011 27.8359 30.5825 27.8479 30.5825 27.884C30.5639 27.9026 30.5639 27.9146 30.5518 27.9321C30.5332 27.9507 30.5212 27.9627 30.4851 27.9627C30.4665 27.9813 30.4545 27.9813 30.4184 27.9813C30.3998 27.9813 30.3878 27.9813 30.3517 27.9627C30.3331 27.9627 30.3211 27.9442 30.3036 27.9321C30.285 27.9135 30.2729 27.9015 30.2729 27.884C30.2543 27.8534 30.2543 27.8359 30.2543 27.8173C30.2543 27.7867 30.2543 27.7691 30.2729 27.7506C30.2729 27.7199 30.2915 27.7024 30.3036 27.6838C30.3221 27.6652 30.3342 27.6652 30.3517 27.6532C30.3823 27.6346 30.3998 27.6346 30.4184 27.6346C30.449 27.6346 30.4665 27.6346 30.4851 27.6532C30.5157 27.6707 30.5332 27.6707 30.5518 27.6838C30.5704 27.697 30.5639 27.7199 30.5825 27.7506ZM30.449 27.8359C30.4796 27.8359 30.4796 27.8173 30.4971 27.8173C30.5157 27.7987 30.5157 27.7866 30.5157 27.7691C30.5157 27.7516 30.5157 27.7385 30.4971 27.721C30.4796 27.721 30.4665 27.7024 30.4304 27.7024H30.3331V27.9146H30.3812V27.8293H30.3998L30.4665 27.9146H30.5146L30.449 27.8359ZM35.0001 6.86649V28.2559C34.9992 29.0292 34.6916 29.7707 34.1448 30.3176C33.5979 30.8644 32.8565 31.172 32.0831 31.1729H2.91605C2.14268 31.172 1.40122 30.8644 0.854361 30.3176C0.3075 29.7707 -0.000108085 29.0292 -0.000976562 28.2559V6.86649C-0.000108085 6.09312 0.3075 5.35166 0.854361 4.8048C1.40122 4.25794 2.14268 3.95033 2.91605 3.94946H32.0831C32.8565 3.95033 33.5979 4.25794 34.1448 4.8048C34.6916 5.35166 34.9992 6.09312 35.0001 6.86649ZM3.88949 15.3485C3.88949 19.997 7.66293 23.7638 12.3048 23.7638C13.958 23.7594 15.5738 23.2716 16.9532 22.3606C12.5236 18.7577 12.5542 11.9579 16.9532 8.35399C15.5751 7.44001 13.9584 6.95197 12.3048 6.95071C7.66293 6.94524 3.88949 10.7176 3.88949 15.3485ZM17.5001 21.9602C21.7843 18.6177 21.7657 12.1045 17.5001 8.74446C13.2345 12.1045 13.2159 18.6243 17.5001 21.9602ZM8.85293 26.5966C8.85293 26.0684 8.50621 25.7217 7.95934 25.7031C7.67934 25.7031 7.38184 25.7884 7.18168 26.0979C7.03621 25.8485 6.78684 25.7031 6.44012 25.7031C6.31402 25.7005 6.18923 25.729 6.07684 25.7863C5.96445 25.8435 5.86794 25.9277 5.7959 26.0312V25.7643H5.29824V27.9945H5.7959C5.7959 26.846 5.64387 26.1591 6.34277 26.1591C6.96293 26.1591 6.84152 26.7793 6.84152 27.9945H7.32168C7.32168 26.8821 7.16965 26.1591 7.86855 26.1591C8.48871 26.1591 8.36621 26.7673 8.36621 27.9945H8.86496V26.5966H8.85293ZM11.5818 25.7643H11.1017V26.0312C11.0168 25.925 10.9084 25.8401 10.785 25.7832C10.6616 25.7262 10.5266 25.6988 10.3907 25.7031C9.76512 25.7031 9.28496 26.2018 9.28496 26.8756C9.28496 27.5559 9.76512 28.0481 10.3907 28.0481C10.7068 28.0481 10.9376 27.9321 11.1017 27.7199V27.9999H11.5818V25.7643ZM14.0428 27.3196C14.0428 26.4085 12.6515 26.8209 12.6515 26.3954C12.6515 26.0487 13.3745 26.1045 13.7759 26.3287L13.9761 25.9338C13.4051 25.5631 12.1407 25.5696 12.1407 26.4326C12.1407 27.301 13.532 26.9368 13.532 27.3437C13.532 27.7265 12.7117 27.6959 12.2742 27.3918L12.062 27.7746C12.7423 28.2362 14.0428 28.1388 14.0428 27.3185V27.3196ZM16.1942 27.884L16.0607 27.4706C15.83 27.5974 15.3192 27.7374 15.3192 27.2212V26.2127H16.1154V25.7632H15.3192V25.0829H14.8204V25.7632H14.3589V26.2073H14.8204V27.2223C14.8204 28.292 15.8715 28.0973 16.1942 27.884ZM17.0014 27.0702H18.6726C18.6726 26.0859 18.2231 25.6965 17.615 25.6965C16.9707 25.6965 16.5092 26.1767 16.5092 26.869C16.5092 28.1148 17.8829 28.3215 18.5632 27.732L18.3325 27.3677C17.8589 27.7571 17.1414 27.7199 17.0014 27.0702ZM20.5932 25.7643C20.3143 25.6429 19.8889 25.6549 19.6701 26.0312V25.7643H19.1714V27.9945H19.6701V26.7367C19.6701 26.0312 20.2476 26.1231 20.4478 26.2259L20.5932 25.7643ZM21.2375 26.8756C21.2375 26.1821 21.9429 25.9579 22.4953 26.3648L22.7261 25.9699C22.0206 25.4176 20.7387 25.7206 20.7387 26.881C20.7387 28.0842 22.0993 28.327 22.7261 27.7921L22.4953 27.3973C21.9364 27.7921 21.2375 27.5559 21.2375 26.8745V26.8756ZM25.2898 25.7643H24.7911V26.0312C24.2868 25.3629 22.9743 25.7402 22.9743 26.8756C22.9743 28.0426 24.335 28.3762 24.7911 27.7199V27.9999H25.2898V25.7643ZM27.3373 25.7643C27.1918 25.691 26.669 25.5882 26.4142 26.0312V25.7643H25.934V27.9945H26.4142V26.7367C26.4142 26.0684 26.9611 26.111 27.1918 26.2259L27.3373 25.7643ZM29.7862 24.8587H29.3061V26.0312C28.8073 25.3695 27.4893 25.7217 27.4893 26.8756C27.4893 28.0546 28.8565 28.3696 29.3061 27.7199V27.9999H29.7862V24.8587ZM30.2489 20.2956V20.5756H30.297V20.2956H30.4118V20.2474H30.1318V20.2956H30.2489ZM30.6492 27.8173C30.6492 27.7867 30.6492 27.7506 30.6317 27.7199C30.6131 27.7013 30.6011 27.6718 30.5836 27.6532C30.5661 27.6346 30.5354 27.6226 30.5168 27.6051C30.4862 27.6051 30.4501 27.5865 30.4195 27.5865C30.4009 27.5865 30.3714 27.6051 30.3342 27.6051C30.31 27.6183 30.2876 27.6344 30.2675 27.6532C30.2368 27.6707 30.2193 27.7013 30.2193 27.7199C30.2007 27.7506 30.2007 27.7867 30.2007 27.8173C30.2007 27.8359 30.2007 27.8654 30.2193 27.9026C30.2193 27.9212 30.2379 27.9507 30.2675 27.9693C30.2865 27.9894 30.3091 28.0058 30.3342 28.0174C30.3648 28.0349 30.4009 28.0349 30.4195 28.0349C30.4501 28.0349 30.4862 28.0349 30.5168 28.0174C30.5354 27.9988 30.565 27.9868 30.5836 27.9693C30.6021 27.9518 30.6142 27.9212 30.6317 27.9026C30.6492 27.8665 30.6492 27.8359 30.6492 27.8173ZM30.8439 20.2409H30.7586L30.6612 20.4531L30.5639 20.2409H30.4786V20.569H30.5267V20.3196L30.624 20.5318H30.6907L30.7761 20.3196V20.569H30.8428L30.8439 20.2409ZM31.1107 15.3485C31.1107 10.7176 27.3373 6.94524 22.6954 6.94524C21.0423 6.94971 19.4265 7.43748 18.047 8.34853C22.4286 11.9524 22.4953 18.7698 18.047 22.3551C19.4259 23.2673 21.0421 23.7552 22.6954 23.7584C27.3373 23.7649 31.1107 19.997 31.1107 15.3485Z" fill="black"/>
</g>
<defs>
<clipPath id="clip0_67_393">
<rect width="35" height="35" fill="white"/>
</clipPath>
</defs>
</svg>
