<svg width="49" height="33" viewBox="0 0 49 33" fill="none" xmlns="http://www.w3.org/2000/svg">
<path d="M45.7333 33H3.26667C2.40029 33 1.5694 32.6523 0.956785 32.0335C0.344166 31.4146 0 30.5752 0 29.7L0 3.3C0 2.42479 0.344166 1.58542 0.956785 0.966548C1.5694 0.347678 2.40029 0 3.26667 0L45.7333 0C46.5997 0 47.4306 0.347678 48.0432 0.966548C48.6558 1.58542 49 2.42479 49 3.3V29.7C49 30.5752 48.6558 31.4146 48.0432 32.0335C47.4306 32.6523 46.5997 33 45.7333 33ZM19.0991 14.1969C19.0618 14.197 19.0249 14.2057 18.9914 14.2224C18.9579 14.2391 18.9287 14.2633 18.9058 14.2931C18.8522 14.3483 18.8215 14.4221 18.8201 14.4994C18.8201 14.5282 18.9535 14.9394 19.2393 15.7822L19.8573 17.6055L20.1444 18.4552C20.4666 19.4086 20.6349 19.9155 20.6494 19.976C20.0159 20.7687 19.443 21.609 18.9358 22.4895L18.8841 22.5858L18.8813 22.6201C18.8813 22.7576 18.9916 22.8704 19.1291 22.8704L19.1658 22.8676H19.1644H20.8223C20.8994 22.8665 20.9751 22.8459 21.0424 22.8077C21.1096 22.7696 21.1664 22.715 21.2075 22.649L21.2088 22.6476L26.6968 14.6465C26.7259 14.6082 26.7417 14.5614 26.7418 14.5131L26.7404 14.4925V14.4939C26.7389 14.4166 26.7083 14.3428 26.6546 14.2876C26.632 14.2579 26.6029 14.2339 26.5696 14.2172C26.5364 14.2005 26.4998 14.1917 26.4627 14.1914H24.8035C24.7261 14.1923 24.6502 14.2127 24.5827 14.2509C24.5151 14.2891 24.4582 14.3438 24.417 14.41L24.4156 14.4114L22.1289 17.8021L21.183 14.5406C21.1587 14.4412 21.1023 14.3529 21.0226 14.2896C20.943 14.2263 20.8447 14.1918 20.7433 14.1914L20.7079 14.1927H20.7093L19.0991 14.1969ZM38.1247 14.0442H38.0893C37.0576 14.0442 36.1307 14.4966 35.491 15.2144L35.4883 15.2171C34.7891 15.9484 34.3986 16.9257 34.3994 17.9424V17.9795V17.9781C34.3975 18.0194 34.3966 18.0643 34.3966 18.1129C34.3966 18.8512 34.6811 19.5236 35.1439 20.0228L35.1425 20.0214C35.4057 20.2805 35.719 20.482 36.0628 20.613C36.4067 20.7441 36.7736 20.802 37.1406 20.7831H37.1338C37.5925 20.7776 38.0281 20.6828 38.4255 20.5123L38.4038 20.5205C38.8053 20.3679 39.1456 20.13 39.4137 19.8275L39.4164 19.8248C39.4028 19.9018 39.3874 19.971 39.3701 20.0324L39.3729 20.0186C39.3502 20.1032 39.3356 20.1898 39.3293 20.2771V20.2799C39.3293 20.5109 39.4228 20.6268 39.6097 20.6278H41.0947C41.1527 20.633 41.2111 20.6265 41.2665 20.6085C41.322 20.5906 41.3733 20.5616 41.4175 20.5232C41.4616 20.4849 41.4977 20.438 41.5236 20.3854C41.5495 20.3327 41.5647 20.2753 41.5683 20.2166V20.2153L42.4503 14.5406C42.4586 14.4978 42.4571 14.4537 42.446 14.4115C42.4349 14.3694 42.4145 14.3303 42.3864 14.2972C42.3614 14.2636 42.3292 14.2363 42.2922 14.2172C42.2551 14.1981 42.2142 14.1879 42.1727 14.1873H40.5353C40.3352 14.1873 40.2086 14.4279 40.1678 14.905C39.9281 14.5946 39.613 14.352 39.2531 14.201C38.8932 14.0499 38.5007 13.9954 38.1138 14.0429L38.1247 14.0415V14.0442ZM13.6751 14.0442H13.637C12.6066 14.0442 11.6797 14.4966 11.0427 15.2144L11.04 15.2171C10.3408 15.9484 9.95034 16.9257 9.95108 17.9424V17.9795V17.9781C9.93274 18.3519 9.98935 18.7256 10.1175 19.0767C10.2457 19.4278 10.4428 19.7491 10.697 20.0214L10.6956 20.02C11.1774 20.493 11.8362 20.7845 12.5631 20.7845L12.6937 20.7817H12.6869C13.1388 20.7749 13.5676 20.68 13.9582 20.5109L13.9364 20.5191C14.3434 20.3624 14.6891 20.1259 14.9681 19.8248L14.9695 19.8234C14.9191 19.9581 14.8878 20.1149 14.8838 20.2771V20.2799C14.8847 20.5109 14.9781 20.6268 15.1641 20.6278H16.6478C16.7057 20.633 16.7642 20.6265 16.8196 20.6085C16.8751 20.5906 16.9264 20.5616 16.9705 20.5232C17.0147 20.4849 17.0508 20.438 17.0767 20.3854C17.1026 20.3327 17.1178 20.2753 17.1214 20.2166V20.2153L18.0048 14.5406C18.0124 14.4981 18.0105 14.4545 17.9992 14.4128C17.9879 14.3712 17.9675 14.3326 17.9394 14.3C17.9145 14.2664 17.8823 14.239 17.8452 14.2199C17.8082 14.2009 17.7673 14.1906 17.7257 14.19H16.0883C15.8883 14.19 15.7617 14.4306 15.7222 14.9078C15.4799 14.5999 15.1643 14.3592 14.8048 14.2081C14.4454 14.0571 14.0538 14.0007 13.6669 14.0442L13.6778 14.0429L13.6751 14.0442ZM44.3886 11L44.3668 10.9986C44.3018 10.9984 44.2391 11.0229 44.1912 11.0672C44.1433 11.1115 44.1136 11.1725 44.1082 11.2379L42.7089 20.284C42.6975 20.3275 42.6973 20.3733 42.7085 20.4169C42.7197 20.4605 42.7419 20.5005 42.7729 20.5329C42.7986 20.5637 42.8308 20.5884 42.867 20.6052C42.9032 20.6221 42.9426 20.6307 42.9825 20.6305H44.4117L44.4552 20.6332C44.5635 20.6332 44.6674 20.5898 44.744 20.5124C44.8206 20.4351 44.8636 20.3302 44.8636 20.2208V20.218L46.2601 11.3286L46.2614 11.2984C46.2616 11.2199 46.2363 11.1436 46.1893 11.0811V11.0825C46.1393 11.0302 46.0708 11 45.9987 10.9986L45.9783 11H44.3886ZM28.5044 11C28.446 10.9927 28.3868 10.9978 28.3305 11.015C28.2742 11.0321 28.2221 11.061 28.1775 11.0997C28.1329 11.1384 28.0968 11.1861 28.0716 11.2397C28.0463 11.2934 28.0324 11.3517 28.0307 11.4111L26.6329 20.2826C26.6253 20.3248 26.6271 20.3682 26.6381 20.4095C26.6492 20.4509 26.6693 20.4893 26.6968 20.5219C26.7209 20.5561 26.7527 20.5839 26.7897 20.6031C26.8267 20.6222 26.8676 20.6321 26.9092 20.6319H28.6854C28.7653 20.6326 28.843 20.6049 28.9047 20.5536C28.9664 20.5023 29.0083 20.4307 29.023 20.3514V20.3486L29.4109 17.8269C29.4162 17.7721 29.4323 17.7189 29.4582 17.6705C29.4842 17.6221 29.5194 17.5794 29.562 17.545C29.6554 17.4701 29.768 17.4212 29.8859 17.4034H29.89C30.0002 17.3827 30.1268 17.3717 30.2561 17.3704C30.3705 17.3704 30.5079 17.3777 30.6658 17.3924C30.8384 17.4127 31.0121 17.4219 31.1858 17.4199C32.183 17.4215 33.1439 17.0418 33.8753 16.357L33.8726 16.3597C34.2373 15.969 34.519 15.507 34.7002 15.0021C34.8813 14.4972 34.9582 13.9602 34.9261 13.4241V13.4351C34.9554 13.0806 34.8952 12.7244 34.7512 12.3998C34.6072 12.0751 34.3841 11.7927 34.1026 11.5789L34.0972 11.5747C33.4477 11.1598 32.6869 10.9586 31.9194 10.9986H31.9276L28.5044 11ZM4.02889 11C3.97195 10.9938 3.91437 10.9998 3.85987 11.0176C3.80538 11.0354 3.75519 11.0645 3.71258 11.1032C3.66996 11.1418 3.63587 11.1891 3.61251 11.2419C3.58915 11.2947 3.57706 11.3519 3.577 11.4097V11.4125L2.17778 20.284C2.17019 20.3262 2.172 20.3695 2.18306 20.4109C2.19413 20.4523 2.21418 20.4907 2.24175 20.5232C2.2658 20.5575 2.29765 20.5853 2.33461 20.6045C2.37157 20.6236 2.41255 20.6335 2.45408 20.6332H4.09286C4.15121 20.6406 4.21043 20.6355 4.26672 20.6183C4.32301 20.6011 4.37513 20.5723 4.41972 20.5335C4.46432 20.4948 4.50042 20.4471 4.5257 20.3935C4.55098 20.3399 4.56489 20.2815 4.56653 20.2221L4.95444 17.831C4.95957 17.7763 4.97545 17.7232 5.00116 17.6748C5.02687 17.6264 5.06189 17.5837 5.10417 17.5491C5.19755 17.4742 5.31016 17.4253 5.42811 17.4075H5.43219C5.55265 17.3862 5.67468 17.3751 5.79697 17.3745H5.79833C5.91267 17.3745 6.04878 17.3818 6.20667 17.3965C6.37878 17.4168 6.55199 17.426 6.72525 17.424C7.76378 17.424 8.70839 17.0211 9.41617 16.3611L9.41344 16.3639C9.77817 15.9732 10.0598 15.5111 10.241 15.0062C10.4222 14.5013 10.4991 13.9643 10.4669 13.4282V13.4392C10.4962 13.0847 10.4361 12.7285 10.2921 12.4039C10.148 12.0793 9.92489 11.7968 9.64347 11.583L9.63803 11.5789C8.99139 11.1654 8.23415 10.9637 7.46978 11.0014H7.47794L4.02889 11ZM38.0349 19.0231L37.9696 19.0245C37.6218 19.0248 37.2852 18.9006 37.0195 18.6739L37.0222 18.6752C36.9002 18.5603 36.8028 18.4213 36.7358 18.2669C36.6689 18.1125 36.6339 17.9459 36.6329 17.7774L36.6343 17.7155V17.6784C36.6343 17.1641 36.8398 16.698 37.1733 16.3597C37.5013 16.0201 37.9587 15.8098 38.465 15.8098H38.5099H38.5072L38.5535 15.8084C38.9196 15.8084 39.2531 15.9445 39.509 16.1686L39.5076 16.1672C39.6338 16.2856 39.7345 16.429 39.8033 16.5885C39.8722 16.7479 39.9077 16.92 39.9078 17.094L39.9064 17.16V17.1572V17.1903C39.9064 17.6976 39.6982 18.1569 39.362 18.4827C39.1922 18.6537 38.9907 18.7892 38.7691 18.8815C38.5475 18.9737 38.31 19.0209 38.0703 19.0204H38.0363L38.0349 19.0231ZM13.5635 19.0231L13.4954 19.0245C13.1388 19.0245 12.8108 18.8925 12.5603 18.6739L12.5617 18.6752C12.442 18.5596 12.3468 18.4207 12.2817 18.2668C12.2167 18.113 12.1832 17.9474 12.1833 17.7801L12.1847 17.7155V17.6784C12.1847 17.1641 12.3902 16.698 12.7237 16.3597C13.0517 16.0201 13.5077 15.8098 14.014 15.8098H14.0616H14.0589L14.1052 15.8084C14.4713 15.8084 14.8048 15.9445 15.0607 16.1686L15.0593 16.1672C15.1851 16.2856 15.2854 16.4288 15.354 16.588C15.4227 16.7472 15.4581 16.919 15.4581 17.0926L15.4568 17.16V17.1572V17.2054C15.4568 17.7127 15.2485 18.1693 14.9123 18.4951C14.5638 18.8348 14.0981 19.0241 13.6138 19.0231H13.5635ZM29.7702 15.5031L30.1364 13.178C30.1393 13.1438 30.1488 13.1105 30.1645 13.08C30.1802 13.0495 30.2017 13.0224 30.2277 13.0003C30.2538 12.9782 30.2839 12.9615 30.3163 12.9512C30.3487 12.9409 30.3829 12.9371 30.4168 12.9401H30.8033L30.8863 12.9387C31.1223 12.9387 31.3541 12.9548 31.5819 12.9869L31.556 12.9841C31.767 13.0226 31.9507 13.1189 32.095 13.2564C32.1779 13.3344 32.2438 13.4289 32.2885 13.534C32.3333 13.6391 32.3559 13.7525 32.355 13.8669L32.3536 13.9191V13.9164C32.3825 14.1461 32.3545 14.3795 32.2724 14.5956C32.1902 14.8118 32.0563 15.0041 31.8827 15.1553L31.8813 15.1566C31.4476 15.4066 30.9503 15.5214 30.4521 15.4866H30.4603L29.7729 15.5086L29.7702 15.5031ZM5.29881 15.5031L5.66495 13.178C5.66786 13.1438 5.67742 13.1105 5.6931 13.08C5.70877 13.0495 5.73025 13.0224 5.75629 13.0003C5.78234 12.9782 5.81244 12.9615 5.84488 12.9512C5.87732 12.9409 5.91145 12.9371 5.94533 12.9401H6.35231C6.78806 12.9082 7.22421 12.9966 7.61406 13.1959L7.60044 13.189C7.85815 13.3568 7.94435 13.7078 7.85906 14.2422C7.85294 14.4415 7.79925 14.6364 7.70256 14.8102C7.60587 14.984 7.46904 15.1316 7.30372 15.2405L7.29964 15.2433C6.65481 15.4845 5.96376 15.5729 5.27975 15.5017L5.29881 15.5031Z" fill="black"/>
</svg>
