<svg width="28" height="27" viewBox="0 0 28 27" fill="none" xmlns="http://www.w3.org/2000/svg">
<path fill-rule="evenodd" clip-rule="evenodd" d="M0 25.5V24.4725C0 23.445 0.733895 22.248 1.64168 21.7965L9.98274 17.6535C11.1926 17.0535 11.4741 15.7215 10.6017 14.6685L10.0682 14.025C8.98358 12.717 8.10526 10.275 8.10526 8.565V6C8.10526 4.4087 8.72631 2.88258 9.83179 1.75736C10.9373 0.632141 12.4366 0 14 0C15.5634 0 17.0627 0.632141 18.1682 1.75736C19.2737 2.88258 19.8947 4.4087 19.8947 6V8.565C19.8947 10.275 19.0105 12.7245 17.9318 14.028L17.3998 14.67C16.5303 15.7185 16.8015 17.052 18.0173 17.655L26.3583 21.798C27.2646 22.248 28 23.4375 28 24.4725V25.5C28 25.8978 27.8447 26.2794 27.5684 26.5607C27.292 26.842 26.9172 27 26.5263 27H1.47368C1.08284 27 0.708001 26.842 0.431632 26.5607C0.155263 26.2794 0 25.8978 0 25.5Z" fill="black"/>
</svg>
