<svg viewBox="0 0 44 34" fill="none" xmlns="http://www.w3.org/2000/svg">
<path d="M35.9104 15.1254C35.9104 15.1254 36.491 17.9487 36.6208 18.5406H34.0694C34.3215 17.8652 35.2917 15.2393 35.2917 15.2393C35.2764 15.2621 35.5437 14.5487 35.6965 14.1085L35.9104 15.1254ZM44 3.64286V30.3571C44 32.3683 42.3576 34 40.3333 34H3.66667C1.64236 34 0 32.3683 0 30.3571V3.64286C0 1.6317 1.64236 0 3.66667 0H40.3333C42.3576 0 44 1.6317 44 3.64286ZM11.6493 22.7071L16.4771 10.9286H13.2306L10.2285 18.9732L9.9 17.3415L8.83055 11.9228C8.65486 11.1714 8.1125 10.9589 7.44028 10.9286H2.49792L2.44444 11.1638C3.65139 11.4674 4.72847 11.9076 5.66806 12.4616L8.40278 22.7071H11.6493ZM18.8604 22.7223L20.7854 10.9286H17.7146L15.7972 22.7223H18.8604ZM29.5472 18.867C29.5625 17.5237 28.7375 16.4991 26.9729 15.6567C25.8958 15.1179 25.2389 14.7536 25.2389 14.1996C25.2542 13.6987 25.7965 13.1826 27.0035 13.1826C28.0042 13.1598 28.7375 13.3951 29.2875 13.6304L29.5625 13.7594L29.9826 11.2094C29.3792 10.9741 28.4167 10.7085 27.2326 10.7085C24.2 10.7085 22.0688 12.3174 22.0535 14.6094C22.0306 16.3018 23.5812 17.2429 24.7424 17.8121C25.9264 18.3888 26.3313 18.7683 26.3313 19.2768C26.316 20.0661 25.3687 20.4304 24.4903 20.4304C23.2681 20.4304 22.6111 20.2406 21.6104 19.8004L21.2056 19.6107L20.7778 22.2594C21.4958 22.5857 22.825 22.8741 24.2 22.8893C27.4236 22.8969 29.5243 21.3107 29.5472 18.867ZM40.3333 22.7223L37.8583 10.9286H35.4826C34.7493 10.9286 34.1917 11.1411 33.8785 11.9076L29.3181 22.7223H32.5417C32.5417 22.7223 33.0687 21.2652 33.1833 20.954H37.125C37.2167 21.3714 37.4917 22.7223 37.4917 22.7223H40.3333Z" fill="currentColor"/>
</svg>
